{"title":"Nurarihyon no Mago (Season1 (26) + Season2 (26))","uid":8003819,"size":3861388580,"categoryP":"video","categoryS":"tv_shows","magnet":"?xt=urn:btih:518b89570bb255eb7d2acf0f5a569d9b4606cba4&amp;dn=Nurarihyon+no+Mago+%28Season1+%2826%29+%2B+Season2+%2826%29%29&amp;tr=udp%3A%2F%2Ftracker.openbittorrent.com%3A80&amp;tr=udp%3A%2F%2Fopen.demonii.com%3A1337&amp;tr=udp%3A%2F%2Ftracker.coppersurfer.tk%3A6969&amp;tr=udp%3A%2F%2Fexodus.desync.com%3A6969","seeders":5,"leechers":1,"uploader":"guru9192","files":52,"time":1357838280,"description":"General\n\nFormat                           : MPEG-4\nFormat profile                   : Base Media\nCodec ID                         : isom\nFile size                        : 62.6 MiB - 80 MiB\nDuration                         : 23mn 44s\nOverall bit rate                 : 369 Kbps\nEncoded date                     : UTC 2011-12-22 17:30:18\nTagged date                      : UTC 2011-12-22 17:30:18\n\nVideo\n\nID                               : 1\nFormat                           : AVC\nFormat/Info                      : Advanced Video Codec\nFormat profile                   : &lt;a class=&quot;__cf_email__&quot; href=&quot;/cdn-cgi/l/email-protection&quot; data-cfemail=&quot;f1bc90989fb1bdc2dfc1&quot;&gt;[email&amp;#160;protected]&lt;/a&gt;&lt;script cf-hash='f9e31' type=&quot;text/javascript&quot;&gt;\n/* &lt;![CDATA[ */!function(){try{var t=&quot;currentScript&quot;in document?document.currentScript:function(){for(var t=document.getElementsByTagName(&quot;script&quot;),e=t.length;e--;)if(t[e].getAttribute(&quot;cf-hash&quot;))return t[e]}();if(t&amp;&amp;t.previousSibling){var e,r,n,i,c=t.previousSibling,a=c.getAttribute(&quot;data-cfemail&quot;);if(a){for(e=&quot;&quot;,r=parseInt(a.substr(0,2),16),n=2;a.length-n;n+=2)i=parseInt(a.substr(n,2),16)^r,e+=String.fromCharCode(i);e=document.createTextNode(e),c.parentNode.replaceChild(e,c)}}}catch(u){}}();/* ]]&gt; */&lt;/script&gt;\nFormat settings, CABAC           : Yes\nFormat settings, ReFrames        : 4 frames\nFormat settings, GOP             : M=4, N=30\nCodec ID                         : avc1\nCodec ID/Info                    : Advanced Video Coding\nDuration                         : 23mn 44s\nBit rate mode                    : Variable\nBit rate                         : 301 Kbps\nMaximum bit rate                 : 3 878 Kbps\nWidth                            : 640 pixels\nHeight                           : 360 pixels\nDisplay aspect ratio             : 16:9\nFrame rate mode                  : Constant\nFrame rate                       : 23.976 fps\nColor space                      : YUV\nChroma subsampling               : 4:2:0\nBit depth                        : 8 bits\nScan type                        : Progressive\nBits/(Pixel*Frame)               : 0.055\nStream size                      : 51.1 MiB (82%)\n\nAudio\n\nID                               : 2\nFormat                           : AAC\nFormat/Info                      : Advanced Audio Codec\nFormat profile                   : LC\nCodec ID                         : 40\nDuration                         : 23mn 44s\nBit rate mode                    : Variable\nBit rate                         : 64.0 Kbps\nMaximum bit rate                 : 120 Kbps\nChannel(s)                       : 2 channels\nChannel positions                : Front: L R\nSampling rate                    : 48.0 KHz\nCompression mode                 : Lossy\nStream size                      : 10.9 MiB (17%)\nEncoded date                     : UTC 2011-12-22 17:30:19\nTagged date                      : UTC 2011-12-22 17:30:19\n\nDownload and Enjoy...Keep Seeding...:)\t\t","torrent":{"xt":"urn:btih:518b89570bb255eb7d2acf0f5a569d9b4606cba4","amp;dn":"Nurarihyon+no+Mago+%28Season1+%2826%29+%2B+Season2+%2826%29%29","amp;tr":["udp%3A%2F%2Ftracker.openbittorrent.com%3A80","udp%3A%2F%2Fopen.demonii.com%3A1337","udp%3A%2F%2Ftracker.coppersurfer.tk%3A6969","udp%3A%2F%2Fexodus.desync.com%3A6969"],"infoHash":"518b89570bb255eb7d2acf0f5a569d9b4606cba4","infoHashBuffer":{"type":"Buffer","data":[81,139,137,87,11,178,85,235,125,42,207,15,90,86,157,155,70,6,203,164]},"announce":[],"urlList":[]}}